<svg width="215" height="70" viewBox="0 0 215 70" fill="none" xmlns="http://www.w3.org/2000/svg">
<path d="M33.12 69.6C30.176 69.6 27.52 68.928 25.152 67.584C22.848 66.176 21.152 64 20.064 61.056L0 1.248H15.264L31.488 55.392C31.616 55.84 31.808 56.16 32.064 56.352C32.384 56.544 32.736 56.64 33.12 56.64C33.504 56.64 33.824 56.544 34.08 56.352C34.4 56.16 34.624 55.84 34.752 55.392L51.552 1.248H66.144L46.176 60.96C45.152 63.84 43.456 66.016 41.088 67.488C38.72 68.896 36.064 69.6 33.12 69.6Z" fill="#1E2E4E"/>
<path d="M104.299 69.696C98.9235 69.696 94.0595 68.8 89.7075 67.008C85.4195 65.152 81.7395 62.624 78.6675 59.424C75.5955 56.224 73.2275 52.512 71.5635 48.288C69.8995 44.064 69.0675 39.552 69.0675 34.752C69.0675 29.952 69.8995 25.472 71.5635 21.312C73.2275 17.088 75.5955 13.376 78.6675 10.176C81.7395 6.97601 85.4195 4.48 89.7075 2.688C94.0595 0.896 98.9235 0 104.299 0C109.675 0 114.507 0.896 118.796 2.688C123.148 4.48 126.86 6.97601 129.932 10.176C133.004 13.376 135.372 17.088 137.036 21.312C138.7 25.472 139.532 29.952 139.532 34.752C139.532 39.552 138.7 44.064 137.036 48.288C135.372 52.512 133.004 56.224 129.932 59.424C126.86 62.624 123.148 65.152 118.796 67.008C114.507 68.8 109.675 69.696 104.299 69.696ZM104.299 57.504C107.371 57.504 110.22 56.96 112.844 55.872C115.468 54.72 117.74 53.12 119.66 51.072C121.643 48.96 123.147 46.528 124.172 43.776C125.26 41.024 125.804 38.016 125.804 34.752C125.804 31.488 125.26 28.48 124.172 25.728C123.147 22.976 121.643 20.576 119.66 18.528C117.74 16.48 115.468 14.912 112.844 13.824C110.22 12.672 107.371 12.096 104.299 12.096C101.228 12.096 98.3795 12.672 95.7555 13.824C93.1315 14.912 90.8275 16.48 88.8435 18.528C86.9235 20.576 85.4195 22.976 84.3315 25.728C83.3075 28.48 82.7955 31.488 82.7955 34.752C82.7955 38.016 83.3075 41.024 84.3315 43.776C85.4195 46.528 86.9235 48.96 88.8435 51.072C90.8275 53.12 93.1315 54.72 95.7555 55.872C98.3795 56.96 101.228 57.504 104.299 57.504Z" fill="#1E2E4E"/>
<path d="M194.438 69.6C190.47 69.6 186.982 68.704 183.974 66.912C180.966 65.056 178.63 62.624 176.966 59.616C175.302 56.544 174.47 53.184 174.47 49.536V18.528C174.47 17.376 174.182 16.32 173.606 15.36C173.03 14.4 172.262 13.632 171.302 13.056C170.342 12.48 169.286 12.192 168.134 12.192C166.982 12.192 165.926 12.48 164.966 13.056C164.07 13.632 163.334 14.4 162.758 15.36C162.182 16.32 161.894 17.376 161.894 18.528V68.448H148.166V20.16C148.166 16.448 148.998 13.088 150.662 10.08C152.326 7.072 154.662 4.672 157.67 2.88C160.678 1.02401 164.166 0.0960045 168.134 0.0960045C172.166 0.0960045 175.686 1.02401 178.694 2.88C181.702 4.672 184.038 7.072 185.702 10.08C187.366 13.088 188.198 16.448 188.198 20.16V51.168C188.198 52.32 188.486 53.376 189.062 54.336C189.638 55.296 190.374 56.064 191.27 56.64C192.23 57.216 193.286 57.504 194.438 57.504C195.59 57.504 196.646 57.216 197.606 56.64C198.566 56.064 199.334 55.296 199.91 54.336C200.486 53.376 200.774 52.32 200.774 51.168V1.248H214.502V49.536C214.502 53.184 213.67 56.544 212.006 59.616C210.342 62.624 208.006 65.056 204.998 66.912C201.99 68.704 198.47 69.6 194.438 69.6Z" fill="#1E2E4E"/>
</svg>
